<svg width="39" height="16" viewBox="0 0 39 16" fill="none" xmlns="http://www.w3.org/2000/svg">
<path d="M5.13781 10.0722C4.20368 10.0722 3.86635 10.715 3.81446 11.0365L6.38332 11.0365C6.35737 10.7151 6.07194 10.0722 5.13781 10.0722Z" fill="#03425E"/>
<path d="M9.88631 9.42938L9.49709 11.2507L31.527 11.465L30.9821 9.85794L16.036 9.42938C16.0101 9.14368 15.7246 8.57227 14.7905 8.57227C13.8564 8.57227 13.5709 9.14368 13.545 9.42938L9.88631 9.42938Z" fill="#03425E"/>
<path d="M33.7067 10.5008C32.7725 10.5008 32.4871 11.1436 32.4612 11.465L35.03 11.465C34.9781 11.1436 34.6408 10.5008 33.7067 10.5008Z" fill="#03425E"/>
<path d="M20.2391 8.25L19.3828 9.53567L29.1912 9.74995L28.2571 8.25L20.2391 8.25Z" fill="#03425E"/>
<path d="M21.1738 7.07227L21.1738 8.2508L27.4792 8.2508L27.09 7.07227L21.1738 7.07227Z" fill="#03425E"/>
<path d="M21.6406 4.28516L21.6406 7.07078L22.1855 7.07078L22.1855 4.28516L21.6406 4.28516Z" fill="#03425E"/>
<path d="M22.1855 0.642835L22.1855 0L24.5987 4.21933e-07L24.5987 0.642836L22.1855 0.642835Z" fill="#03425E"/>
<path d="M23.6643 7.17835L23.1973 7.17835L23.1973 0.75L23.6643 0.75L23.6643 7.17835Z" fill="#03425E"/>
<path d="M26.0001 3.75L24.6768 3.75L24.6768 7.07132L26.0001 7.07132L26.0001 3.75Z" fill="#03425E"/>
<path d="M38.7665 13.6062C38.7665 13.6062 38.8443 12.0706 39 11.4634L2.78139e-06 10.9277C0.229993 11.5794 0.579895 12.6292 0.86215 13.6062L38.7665 13.6062Z" fill="#03425E"/>
<path d="M1.32336 15.749C1.32336 15.749 24.7804 16.1061 36.509 15.749C37.3393 15.1419 38.7665 13.6062 38.7665 13.6062L0.86215 13.6062C1.12126 14.5031 1.32336 15.749 1.32336 15.749Z" fill="#03425E"/>
</svg>
