<svg width="54" height="16" viewBox="0 0 54 16" fill="none" xmlns="http://www.w3.org/2000/svg">
<path d="M7.07137 10.0722C5.7857 10.0722 5.32143 10.715 5.25 11.0365H8.78559C8.74988 10.715 8.35704 10.0722 7.07137 10.0722Z" fill="#F5FFFF"/>
<path d="M13.6069 9.42938L13.0712 11.2507L43.3916 11.465L42.6416 9.85794L22.0709 9.42938C22.0351 9.14367 21.6423 8.57227 20.3566 8.57227C19.071 8.57227 18.6781 9.14367 18.6424 9.42938H13.6069Z" fill="#F5FFFF"/>
<path d="M46.3915 10.5008C45.1058 10.5008 44.713 11.1436 44.6772 11.465H48.2128C48.1414 11.1436 47.6771 10.5008 46.3915 10.5008Z" fill="#F5FFFF"/>
<path d="M27.8563 8.25L26.6777 9.53567L40.1773 9.74995L38.8916 8.25H27.8563Z" fill="#F5FFFF"/>
<path d="M29.1416 7.07227V8.2508H37.8199L37.2842 7.07227H29.1416Z" fill="#F5FFFF"/>
<path d="M29.7852 4.28516V7.07078H30.5351V4.28516H29.7852Z" fill="#F5FFFF"/>
<path d="M30.5342 0.642835V0H33.8555V0.642835H30.5342Z" fill="#F5FFFF"/>
<path d="M32.5706 7.17835H31.9277V0.75H32.5706V7.17835Z" fill="#F5FFFF"/>
<path d="M35.7852 3.75H33.9639V7.07132H35.7852V3.75Z" fill="#F5FFFF"/>
<path d="M5.46379 10.6073L3.21387 9.85737M19.0705 8.78598L16.7134 8.35742M47.9981 11.0359L50.1408 10.2859" stroke="#C4C4C4"/>
<path d="M53.3553 13.6062C53.3553 13.6062 53.4625 12.0706 53.6768 11.4634L0 10.9277C0.316542 11.5794 0.798122 12.6292 1.1866 13.6062H53.3553Z" fill="#F5FFFF"/>
<path d="M1.82137 15.749C1.82137 15.749 34.106 16.1061 50.2483 15.749C51.3911 15.1419 53.3553 13.6062 53.3553 13.6062H1.1866C1.54321 14.5031 1.82137 15.749 1.82137 15.749Z" fill="#F5FFFF"/>
</svg>
