<svg width="131" height="131" viewBox="0 0 131 131" fill="none" xmlns="http://www.w3.org/2000/svg">
<path d="M20.8444 63.568C17.9635 63.568 16.9232 65.0084 16.7632 65.7286H24.6854C24.6054 65.0084 23.7252 63.568 20.8444 63.568Z" fill="#C4C4C4"/>
<path d="M35.4885 62.1276L34.2882 66.2087L102.228 66.6889L100.547 63.0879L54.454 62.1276C54.3739 61.4874 53.4937 60.207 50.6129 60.207C47.732 60.207 46.8518 61.4874 46.7718 62.1276H35.4885Z" fill="#C4C4C4"/>
<path d="M108.95 64.5283C106.069 64.5283 105.188 65.9687 105.108 66.6889H113.031C112.871 65.9687 111.83 64.5283 108.95 64.5283Z" fill="#C4C4C4"/>
<path d="M67.4176 59.4863L64.7769 62.3672L95.0255 62.8473L92.1447 59.4863H67.4176Z" fill="#7C7C7C"/>
<path d="M70.2983 56.8457V59.4865H89.7439L88.5436 56.8457H70.2983Z" fill="#C4C4C4"/>
<path d="M71.7388 50.6016V56.8433H73.4193V50.6016H71.7388Z" fill="#7C7C7C"/>
<path d="M73.4189 42.4404V41H80.8611V42.4404H73.4189Z" fill="#7C7C7C"/>
<path d="M77.9805 57.0838H76.54V42.6797H77.9805V57.0838Z" fill="#C3C4C4"/>
<path d="M85.1837 49.4043H81.1025V56.8464H85.1837V49.4043Z" fill="#7C7C7C"/>
<path d="M17.2431 64.7661L12.2017 63.0856M47.7318 60.6849L42.4503 59.7246M112.55 65.7263L117.352 64.0458" stroke="#C4C4C4"/>
<path d="M124.554 71.488C124.554 71.488 124.794 68.0471 125.274 66.6867L5 65.4863C5.70928 66.9466 6.78837 69.2988 7.65883 71.488H124.554Z" fill="#7C7C7C"/>
<path d="M9.08117 76.2894C9.08117 76.2894 81.4219 77.0896 117.592 76.2894C120.153 74.929 124.554 71.488 124.554 71.488H7.65883C8.4579 73.4978 9.08117 76.2894 9.08117 76.2894Z" fill="#7C7C7C"/>
<path d="M9.08117 76.2894C9.08117 76.2894 81.4219 77.0896 117.592 76.2894C120.153 74.929 124.554 71.488 124.554 71.488H7.65883C8.4579 73.4978 9.08117 76.2894 9.08117 76.2894Z" fill="#8B160C"/>
<circle cx="65.5" cy="65.5" r="63.5" stroke="black" stroke-width="4"/>
<path d="M66.5 111.5V127M66.5 1.5V17" stroke="black" stroke-width="3"/>
<path d="M113.755 73.2559L129.255 73.2559M3.75488 73.2559L19.2549 73.2559" stroke="black" stroke-width="3"/>
</svg>
